# xmcd
#
# Track frame offsets: 
#        150
#        25118
#        42332
#        61869
#        75570
#        101066
#        119761
#        152119
#        186870
#        203938
#        217909
#        246029
#
# Disc length: 3532 seconds
#
# Revision: 0
# Processed by: cddbd v1.5.1PL2 Copyright (c) Steve Scherf et al.
# Submitted via: ExactAudioCopy v0.95a5
#
DISCID=a10dca0c
DTITLE=Cornmeal - Feet First
DYEAR=2006
DGENRE=Bluegrass
TTITLE0=River Gap
TTITLE1=The Girl I Left Behind
TTITLE2=Edge Of The World
TTITLE3=Stofer's Ramble
TTITLE4=Stealin' Away My Heart
TTITLE5=Hasten Jason
TTITLE6=On My Own
TTITLE7=Onward
TTITLE8=Feet On The Ground
TTITLE9=Travelin' On
TTITLE10=Another Lonesome Road
TTITLE11=Hillbilly Ride
EXTD=
EXTT0=
EXTT1=
EXTT2=
EXTT3=
EXTT4=
EXTT5=
EXTT6=
EXTT7=
EXTT8=
EXTT9=
EXTT10=
EXTT11=
PLAYORDER=
